<?xml version="1.0" encoding="UTF-8" ?>
<!DOCTYPE svg PUBLIC "-//W3C//DTD SVG 1.1//EN" "http://www.w3.org/Graphics/SVG/1.1/DTD/svg11.dtd">
<svg width="540pt" height="289pt" viewBox="0 0 540 289" version="1.1" xmlns="http://www.w3.org/2000/svg">
<path fill="#ffffff" d=" M 0.00 0.00 L 540.00 0.00 L 540.00 289.00 L 0.00 289.00 L 0.00 0.00 Z" />
<path fill="#ac0233" d=" M 10.00 6.25 C 25.50 6.25 41.00 6.23 56.50 6.26 C 56.50 99.09 56.50 191.92 56.50 284.75 C 41.00 284.75 25.50 284.75 10.01 284.76 C 9.99 191.92 10.00 99.08 10.00 6.25 Z" />
<path fill="#aaabad" d=" M 94.53 30.49 C 107.21 15.60 126.40 6.49 145.98 6.27 C 161.90 6.23 177.82 6.27 193.74 6.25 C 193.76 21.83 193.75 37.41 193.75 52.98 C 180.17 53.02 166.59 52.99 153.01 53.00 C 148.70 53.02 144.25 52.63 140.12 54.15 C 131.25 56.94 124.63 65.67 124.51 74.99 C 124.48 83.07 124.51 91.15 124.52 99.22 C 147.59 99.29 170.66 99.23 193.74 99.25 C 193.77 114.75 193.75 130.25 193.75 145.75 C 170.67 145.75 147.60 145.74 124.52 145.75 C 124.47 192.08 124.53 238.42 124.49 284.75 C 108.91 284.74 93.34 284.76 77.76 284.74 C 77.74 214.82 77.75 144.91 77.75 74.99 C 77.88 58.79 83.89 42.72 94.53 30.49 Z" />
<path fill="#aaabad" d=" M 275.99 6.86 C 292.65 4.59 310.09 8.67 323.98 18.14 C 338.40 27.81 348.97 43.05 352.84 59.98 C 354.46 66.54 354.63 73.32 354.76 80.04 C 354.74 148.27 354.77 216.51 354.74 284.74 C 339.17 284.76 323.59 284.74 308.02 284.76 C 307.96 253.92 308.04 223.08 307.98 192.25 C 292.58 192.26 277.18 192.24 261.78 192.26 C 261.69 223.09 261.80 253.92 261.72 284.75 C 246.15 284.76 230.58 284.75 215.01 284.75 C 214.98 215.15 215.01 145.55 215.00 75.96 C 215.01 61.95 219.24 47.94 227.28 36.44 C 238.33 20.25 256.52 9.18 275.99 6.86 Z" />
<path fill="#aaabad" d=" M 416.04 10.88 C 429.98 5.54 445.63 4.80 460.00 8.82 C 474.90 12.90 488.23 22.26 497.32 34.74 C 506.12 46.73 510.95 61.61 510.77 76.49 C 495.22 76.51 479.68 76.50 464.13 76.49 C 464.07 69.83 461.41 63.08 456.30 58.69 C 450.27 53.20 441.17 51.51 433.53 54.30 C 424.52 57.39 417.86 66.42 417.98 76.01 C 418.03 122.70 417.96 169.39 418.02 216.08 C 418.26 226.99 427.25 236.68 437.97 238.23 C 448.29 240.00 458.96 233.25 462.51 223.55 C 464.24 219.59 464.05 215.21 464.01 211.00 C 463.98 189.25 464.02 167.50 463.98 145.76 C 456.41 145.73 448.83 145.77 441.25 145.74 C 441.25 130.25 441.22 114.75 441.27 99.25 C 464.42 99.25 487.58 99.25 510.74 99.25 C 510.76 138.51 510.73 177.77 510.76 217.03 C 510.44 234.90 502.91 252.57 490.11 265.06 C 478.48 276.78 462.45 283.99 445.99 285.04 C 428.58 286.27 410.76 280.77 397.21 269.75 C 380.50 256.54 370.71 235.27 371.23 214.00 C 371.26 167.99 371.25 121.97 371.24 75.96 C 371.26 65.40 373.64 54.81 378.32 45.33 C 385.95 29.64 399.71 17.03 416.04 10.88 Z" />
<path fill="#ffffff" d=" M 270.20 58.15 C 277.54 52.13 288.70 51.21 296.81 56.23 C 303.72 60.21 307.99 68.06 307.98 75.99 C 308.01 99.16 308.02 122.33 307.97 145.50 C 292.60 145.52 277.23 145.44 261.87 145.54 C 261.58 122.70 261.85 99.84 261.73 76.99 C 261.43 69.85 264.56 62.60 270.20 58.15 Z" />
</svg>
