<?xml version="1.0" encoding="UTF-8" ?>
<!DOCTYPE svg PUBLIC "-//W3C//DTD SVG 1.1//EN" "http://www.w3.org/Graphics/SVG/1.1/DTD/svg11.dtd">
<svg width="989pt" height="384pt" viewBox="0 0 989 384" version="1.1" xmlns="http://www.w3.org/2000/svg">
<path fill="#fffffe" d=" M 0.00 0.00 L 989.00 0.00 L 989.00 384.00 L 0.00 384.00 L 0.00 0.00 Z" />
<path fill="#ac0233" d=" M 4.01 6.24 C 19.53 6.31 35.04 6.13 50.55 6.33 C 50.38 99.16 50.62 191.98 50.43 284.81 C 34.96 284.69 19.49 284.77 4.02 284.76 C 3.99 191.92 3.99 99.08 4.01 6.24 Z" />
<path fill="#acacae" d=" M 88.98 29.95 C 101.67 15.36 120.66 6.48 140.02 6.26 C 155.93 6.22 171.84 6.24 187.76 6.25 C 187.79 21.82 187.72 37.38 187.80 52.95 C 171.84 53.10 155.89 52.90 139.94 53.04 C 128.90 53.45 119.12 62.98 118.56 74.04 C 118.43 82.42 118.51 90.82 118.55 99.21 C 141.61 99.29 164.68 99.20 187.75 99.25 C 187.78 114.75 187.78 130.26 187.75 145.76 C 165.83 145.75 143.90 145.79 121.98 145.74 C 120.78 145.78 119.59 145.91 118.41 146.12 C 118.66 190.41 118.41 234.71 118.54 279.00 C 118.57 280.95 118.50 282.89 118.33 284.83 C 102.84 284.68 87.34 284.78 71.85 284.78 C 71.61 215.18 71.83 145.58 71.74 75.98 C 71.64 59.21 77.85 42.50 88.98 29.95 Z" />
<path fill="#acacae" d=" M 270.04 6.84 C 287.37 4.49 305.53 9.03 319.69 19.32 C 332.63 28.58 342.24 42.41 346.31 57.81 C 348.69 66.31 348.76 75.22 348.77 83.98 C 348.75 150.90 348.78 217.82 348.76 284.75 C 333.19 284.81 317.62 284.70 302.06 284.80 C 301.89 253.94 302.12 223.08 301.94 192.22 C 286.62 192.26 271.29 192.30 255.97 192.19 C 255.47 223.03 255.94 253.90 255.73 284.75 C 240.17 284.80 224.60 284.72 209.04 284.79 C 208.95 215.18 209.03 145.57 209.00 75.96 C 208.93 58.35 215.83 40.81 228.04 28.10 C 239.01 16.43 254.13 8.76 270.04 6.84 Z" />
<path fill="#acacae" d=" M 425.04 7.00 C 442.43 4.38 460.80 8.62 475.13 18.84 C 493.64 31.67 505.21 53.97 504.73 76.53 C 489.16 76.37 473.58 76.71 458.03 76.36 C 458.15 69.48 455.09 62.56 449.73 58.21 C 444.11 53.44 436.07 51.78 429.01 53.84 C 421.34 55.95 414.91 62.24 412.84 69.94 C 411.81 73.19 411.97 76.63 411.99 79.99 C 412.02 125.34 411.97 170.69 412.01 216.03 C 412.22 229.05 425.06 240.12 437.98 238.31 C 448.89 237.04 457.93 226.99 458.00 216.00 C 458.00 192.59 458.02 169.18 457.99 145.77 C 450.40 145.73 442.82 145.79 435.24 145.75 C 435.24 130.25 435.21 114.75 435.25 99.25 C 458.42 99.23 481.59 99.23 504.76 99.25 C 504.77 138.51 504.75 177.76 504.77 217.01 C 504.45 234.65 497.13 252.10 484.61 264.57 C 472.94 276.57 456.69 283.99 439.98 285.04 C 423.09 286.23 405.80 281.11 392.41 270.70 C 375.82 258.15 365.60 237.79 365.24 217.01 C 365.22 169.66 365.24 122.30 365.23 74.95 C 365.44 56.77 373.10 38.80 386.18 26.16 C 396.66 15.85 410.48 9.01 425.04 7.00 Z" />
<path fill="#fffffe" d=" M 265.40 57.26 C 272.91 51.88 283.71 51.49 291.45 56.63 C 298.33 60.89 302.26 69.02 302.00 77.03 C 301.89 99.88 302.22 122.73 301.83 145.58 C 286.57 145.43 271.30 145.42 256.04 145.58 C 255.89 144.38 255.79 143.18 255.75 141.98 C 255.78 119.97 255.75 97.97 255.76 75.97 C 255.67 68.65 259.38 61.41 265.40 57.26 Z" />
<path fill="#029ee0" d=" M 3.76 338.76 C 69.34 338.74 134.92 338.75 200.50 338.76 C 200.50 351.67 200.50 364.58 200.50 377.49 C 134.92 377.50 69.33 377.51 3.75 377.49 C 3.75 364.58 3.75 351.67 3.76 338.76 Z" />
<path fill="#fed502" d=" M 200.50 338.76 C 266.08 338.75 331.66 338.76 397.24 338.75 C 397.26 351.67 397.24 364.58 397.24 377.50 C 331.66 377.51 266.08 377.51 200.50 377.49 C 200.50 364.58 200.50 351.67 200.50 338.76 Z" />
<path fill="#8fbc13" d=" M 397.24 338.75 C 462.74 338.76 528.25 338.75 593.75 338.75 C 593.74 351.67 593.75 364.58 593.75 377.50 C 528.24 377.51 462.74 377.50 397.24 377.50 C 397.24 364.58 397.26 351.67 397.24 338.75 Z" />
<path fill="#6d2180" d=" M 593.75 338.75 C 659.33 338.75 724.90 338.75 790.48 338.76 C 790.48 351.67 790.53 364.59 790.46 377.50 C 724.89 377.50 659.32 377.51 593.75 377.50 C 593.75 364.58 593.74 351.67 593.75 338.75 Z" />
<path fill="#e3202d" d=" M 790.48 338.76 C 856.16 338.75 921.83 338.74 987.50 338.76 C 987.51 351.67 987.50 364.57 987.51 377.48 C 921.82 377.54 856.14 377.50 790.46 377.50 C 790.53 364.59 790.48 351.67 790.48 338.76 Z" />
</svg>
